<?xml version="1.0" encoding="UTF-8"?>
<svg xmlns="http://www.w3.org/2000/svg" xmlns:xlink="http://www.w3.org/1999/xlink" width="3303.8" height="2483.47" viewBox="0 0 3303.8 2483.47">
<defs>
<clipPath id="clip-0">
<path clip-rule="nonzero" d="M 1863 674 L 2618 674 L 2618 2243 L 1863 2243 Z M 1863 674 "/>
</clipPath>
<clipPath id="clip-1">
<path clip-rule="evenodd" d="M 1976.03125 1192.320312 C 2058.53125 1051.839844 2263.03125 1051.210938 2346.140625 1192.28125 C 2376.339844 1243.578125 2298.410156 1289.339844 2268.289062 1238.140625 C 2220.300781 1156.53125 2101.820312 1156.609375 2053.960938 1238.128906 C 2024.230469 1288.789062 1945.558594 1244.191406 1976.03125 1192.320312 Z M 2585.179688 674.730469 L 1863.21875 674.730469 L 1863.21875 1554.679688 C 2004.691406 1569.121094 2133.390625 1650.601562 2206.378906 1774.570312 C 2236.710938 1826.101562 2158.578125 1871.460938 2128.53125 1820.429688 C 2071.738281 1723.929688 1972.71875 1659.660156 1863.21875 1645.628906 L 1863.21875 2242.851562 C 2315.378906 2073.648438 2617.800781 1638.671875 2617.800781 1154.5 C 2617.800781 1023.949219 2605.589844 794.789062 2585.179688 674.730469 "/>
</clipPath>
<linearGradient id="linear-pattern-0" gradientUnits="userSpaceOnUse" x1="0.0269563" y1="0" x2="0.973034" y2="0" gradientTransform="matrix(797.588, 0, 0, 797.588, 1841.72, 1458.8)">
<stop offset="0" stop-color="rgb(41.123962%, 36.299133%, 66.314697%)" stop-opacity="1"/>
<stop offset="0.015625" stop-color="rgb(41.001892%, 36.46698%, 66.433716%)" stop-opacity="1"/>
<stop offset="0.03125" stop-color="rgb(40.757751%, 36.802673%, 66.671753%)" stop-opacity="1"/>
<stop offset="0.046875" stop-color="rgb(40.515137%, 37.138367%, 66.90979%)" stop-opacity="1"/>
<stop offset="0.0625" stop-color="rgb(40.270996%, 37.475586%, 67.146301%)" stop-opacity="1"/>
<stop offset="0.078125" stop-color="rgb(40.028381%, 37.811279%, 67.384338%)" stop-opacity="1"/>
<stop offset="0.09375" stop-color="rgb(39.784241%, 38.146973%, 67.622375%)" stop-opacity="1"/>
<stop offset="0.109375" stop-color="rgb(39.541626%, 38.484192%, 67.860413%)" stop-opacity="1"/>
<stop offset="0.125" stop-color="rgb(39.297485%, 38.819885%, 68.096924%)" stop-opacity="1"/>
<stop offset="0.140625" stop-color="rgb(39.053345%, 39.155579%, 68.334961%)" stop-opacity="1"/>
<stop offset="0.15625" stop-color="rgb(38.81073%, 39.492798%, 68.572998%)" stop-opacity="1"/>
<stop offset="0.171875" stop-color="rgb(38.566589%, 39.828491%, 68.811035%)" stop-opacity="1"/>
<stop offset="0.1875" stop-color="rgb(38.323975%, 40.16571%, 69.047546%)" stop-opacity="1"/>
<stop offset="0.203125" stop-color="rgb(38.079834%, 40.501404%, 69.285583%)" stop-opacity="1"/>
<stop offset="0.21875" stop-color="rgb(37.837219%, 40.837097%, 69.523621%)" stop-opacity="1"/>
<stop offset="0.234375" stop-color="rgb(37.593079%, 41.174316%, 69.761658%)" stop-opacity="1"/>
<stop offset="0.25" stop-color="rgb(37.348938%, 41.51001%, 69.998169%)" stop-opacity="1"/>
<stop offset="0.265625" stop-color="rgb(37.106323%, 41.845703%, 70.236206%)" stop-opacity="1"/>
<stop offset="0.28125" stop-color="rgb(36.862183%, 42.182922%, 70.474243%)" stop-opacity="1"/>
<stop offset="0.296875" stop-color="rgb(36.619568%, 42.518616%, 70.71228%)" stop-opacity="1"/>
<stop offset="0.3125" stop-color="rgb(36.375427%, 42.854309%, 70.950317%)" stop-opacity="1"/>
<stop offset="0.328125" stop-color="rgb(36.132812%, 43.191528%, 71.186829%)" stop-opacity="1"/>
<stop offset="0.34375" stop-color="rgb(35.888672%, 43.527222%, 71.424866%)" stop-opacity="1"/>
<stop offset="0.359375" stop-color="rgb(35.646057%, 43.862915%, 71.662903%)" stop-opacity="1"/>
<stop offset="0.375" stop-color="rgb(35.401917%, 44.200134%, 71.90094%)" stop-opacity="1"/>
<stop offset="0.390625" stop-color="rgb(35.157776%, 44.535828%, 72.137451%)" stop-opacity="1"/>
<stop offset="0.40625" stop-color="rgb(34.915161%, 44.871521%, 72.375488%)" stop-opacity="1"/>
<stop offset="0.421875" stop-color="rgb(34.671021%, 45.20874%, 72.613525%)" stop-opacity="1"/>
<stop offset="0.4375" stop-color="rgb(34.428406%, 45.544434%, 72.851562%)" stop-opacity="1"/>
<stop offset="0.453125" stop-color="rgb(34.184265%, 45.881653%, 73.088074%)" stop-opacity="1"/>
<stop offset="0.46875" stop-color="rgb(33.94165%, 46.217346%, 73.326111%)" stop-opacity="1"/>
<stop offset="0.484375" stop-color="rgb(33.69751%, 46.55304%, 73.564148%)" stop-opacity="1"/>
<stop offset="0.5" stop-color="rgb(33.453369%, 46.890259%, 73.802185%)" stop-opacity="1"/>
<stop offset="0.515625" stop-color="rgb(33.210754%, 47.225952%, 74.038696%)" stop-opacity="1"/>
<stop offset="0.53125" stop-color="rgb(32.966614%, 47.561646%, 74.276733%)" stop-opacity="1"/>
<stop offset="0.546875" stop-color="rgb(32.723999%, 47.898865%, 74.514771%)" stop-opacity="1"/>
<stop offset="0.5625" stop-color="rgb(32.479858%, 48.234558%, 74.752808%)" stop-opacity="1"/>
<stop offset="0.578125" stop-color="rgb(32.237244%, 48.570251%, 74.990845%)" stop-opacity="1"/>
<stop offset="0.59375" stop-color="rgb(31.993103%, 48.907471%, 75.227356%)" stop-opacity="1"/>
<stop offset="0.609375" stop-color="rgb(31.748962%, 49.243164%, 75.465393%)" stop-opacity="1"/>
<stop offset="0.625" stop-color="rgb(31.506348%, 49.578857%, 75.70343%)" stop-opacity="1"/>
<stop offset="0.640625" stop-color="rgb(31.262207%, 49.916077%, 75.941467%)" stop-opacity="1"/>
<stop offset="0.65625" stop-color="rgb(31.019592%, 50.25177%, 76.177979%)" stop-opacity="1"/>
<stop offset="0.671875" stop-color="rgb(30.775452%, 50.587463%, 76.416016%)" stop-opacity="1"/>
<stop offset="0.6875" stop-color="rgb(30.532837%, 50.924683%, 76.654053%)" stop-opacity="1"/>
<stop offset="0.703125" stop-color="rgb(30.288696%, 51.260376%, 76.89209%)" stop-opacity="1"/>
<stop offset="0.71875" stop-color="rgb(30.046082%, 51.596069%, 77.128601%)" stop-opacity="1"/>
<stop offset="0.734375" stop-color="rgb(29.801941%, 51.933289%, 77.366638%)" stop-opacity="1"/>
<stop offset="0.75" stop-color="rgb(29.5578%, 52.268982%, 77.604675%)" stop-opacity="1"/>
<stop offset="0.765625" stop-color="rgb(29.315186%, 52.606201%, 77.842712%)" stop-opacity="1"/>
<stop offset="0.78125" stop-color="rgb(29.071045%, 52.941895%, 78.079224%)" stop-opacity="1"/>
<stop offset="0.796875" stop-color="rgb(28.82843%, 53.277588%, 78.317261%)" stop-opacity="1"/>
<stop offset="0.8125" stop-color="rgb(28.58429%, 53.614807%, 78.555298%)" stop-opacity="1"/>
<stop offset="0.828125" stop-color="rgb(28.341675%, 53.9505%, 78.793335%)" stop-opacity="1"/>
<stop offset="0.84375" stop-color="rgb(28.097534%, 54.286194%, 79.031372%)" stop-opacity="1"/>
<stop offset="0.859375" stop-color="rgb(27.853394%, 54.623413%, 79.267883%)" stop-opacity="1"/>
<stop offset="0.875" stop-color="rgb(27.610779%, 54.959106%, 79.50592%)" stop-opacity="1"/>
<stop offset="0.890625" stop-color="rgb(27.366638%, 55.2948%, 79.743958%)" stop-opacity="1"/>
<stop offset="0.90625" stop-color="rgb(27.124023%, 55.632019%, 79.981995%)" stop-opacity="1"/>
<stop offset="0.921875" stop-color="rgb(26.879883%, 55.967712%, 80.218506%)" stop-opacity="1"/>
<stop offset="0.9375" stop-color="rgb(26.637268%, 56.303406%, 80.456543%)" stop-opacity="1"/>
<stop offset="0.953125" stop-color="rgb(26.393127%, 56.640625%, 80.69458%)" stop-opacity="1"/>
<stop offset="0.96875" stop-color="rgb(26.148987%, 56.976318%, 80.932617%)" stop-opacity="1"/>
<stop offset="0.984375" stop-color="rgb(25.906372%, 57.312012%, 81.169128%)" stop-opacity="1"/>
<stop offset="1" stop-color="rgb(25.662231%, 57.649231%, 81.407166%)" stop-opacity="1"/>
</linearGradient>
<clipPath id="clip-2">
<path clip-rule="nonzero" d="M 815 878 L 1570 878 L 1570 2447 L 815 2447 Z M 815 878 "/>
</clipPath>
<clipPath id="clip-3">
<path clip-rule="evenodd" d="M 1102.699219 1295.960938 C 1167.941406 1257.539062 1162.359375 1373.339844 1271.738281 1373.339844 C 1381.070312 1373.339844 1375.578125 1257.539062 1440.769531 1295.960938 C 1513.871094 1339.058594 1393.050781 1463.691406 1271.699219 1463.691406 C 1150.351562 1463.691406 1029.589844 1339.039062 1102.699219 1295.960938 Z M 1569.578125 1952.679688 L 1569.578125 878.039062 L 847.617188 878.039062 C 827.265625 998.128906 815.050781 1227.269531 815.050781 1357.769531 C 815.050781 1841.941406 1117.480469 2276.921875 1569.578125 2446.148438 L 1569.578125 2043.628906 C 1428.121094 2029.191406 1299.421875 1947.738281 1226.429688 1823.769531 C 1196.269531 1772.519531 1274.058594 1726.660156 1304.289062 1777.929688 C 1361.089844 1874.378906 1460.070312 1938.679688 1569.578125 1952.679688 "/>
</clipPath>
<linearGradient id="linear-pattern-1" gradientUnits="userSpaceOnUse" x1="0.0269606" y1="0" x2="0.972952" y2="0" gradientTransform="matrix(797.608, 0, 0, 797.608, 793.546, 1662.1)">
<stop offset="0" stop-color="rgb(41.123962%, 36.299133%, 66.314697%)" stop-opacity="1"/>
<stop offset="0.015625" stop-color="rgb(41.001892%, 36.46698%, 66.433716%)" stop-opacity="1"/>
<stop offset="0.03125" stop-color="rgb(40.757751%, 36.802673%, 66.671753%)" stop-opacity="1"/>
<stop offset="0.046875" stop-color="rgb(40.515137%, 37.138367%, 66.90979%)" stop-opacity="1"/>
<stop offset="0.0625" stop-color="rgb(40.270996%, 37.475586%, 67.146301%)" stop-opacity="1"/>
<stop offset="0.078125" stop-color="rgb(40.028381%, 37.811279%, 67.384338%)" stop-opacity="1"/>
<stop offset="0.09375" stop-color="rgb(39.784241%, 38.146973%, 67.622375%)" stop-opacity="1"/>
<stop offset="0.109375" stop-color="rgb(39.541626%, 38.484192%, 67.860413%)" stop-opacity="1"/>
<stop offset="0.125" stop-color="rgb(39.297485%, 38.819885%, 68.096924%)" stop-opacity="1"/>
<stop offset="0.140625" stop-color="rgb(39.053345%, 39.155579%, 68.334961%)" stop-opacity="1"/>
<stop offset="0.15625" stop-color="rgb(38.81073%, 39.492798%, 68.572998%)" stop-opacity="1"/>
<stop offset="0.171875" stop-color="rgb(38.566589%, 39.828491%, 68.811035%)" stop-opacity="1"/>
<stop offset="0.1875" stop-color="rgb(38.323975%, 40.164185%, 69.047546%)" stop-opacity="1"/>
<stop offset="0.203125" stop-color="rgb(38.079834%, 40.501404%, 69.285583%)" stop-opacity="1"/>
<stop offset="0.21875" stop-color="rgb(37.837219%, 40.837097%, 69.523621%)" stop-opacity="1"/>
<stop offset="0.234375" stop-color="rgb(37.593079%, 41.172791%, 69.761658%)" stop-opacity="1"/>
<stop offset="0.25" stop-color="rgb(37.350464%, 41.51001%, 69.998169%)" stop-opacity="1"/>
<stop offset="0.265625" stop-color="rgb(37.106323%, 41.845703%, 70.236206%)" stop-opacity="1"/>
<stop offset="0.28125" stop-color="rgb(36.863708%, 42.181396%, 70.474243%)" stop-opacity="1"/>
<stop offset="0.296875" stop-color="rgb(36.619568%, 42.518616%, 70.71228%)" stop-opacity="1"/>
<stop offset="0.3125" stop-color="rgb(36.375427%, 42.854309%, 70.948792%)" stop-opacity="1"/>
<stop offset="0.328125" stop-color="rgb(36.132812%, 43.190002%, 71.186829%)" stop-opacity="1"/>
<stop offset="0.34375" stop-color="rgb(35.888672%, 43.527222%, 71.424866%)" stop-opacity="1"/>
<stop offset="0.359375" stop-color="rgb(35.646057%, 43.862915%, 71.662903%)" stop-opacity="1"/>
<stop offset="0.375" stop-color="rgb(35.401917%, 44.198608%, 71.899414%)" stop-opacity="1"/>
<stop offset="0.390625" stop-color="rgb(35.159302%, 44.535828%, 72.137451%)" stop-opacity="1"/>
<stop offset="0.40625" stop-color="rgb(34.915161%, 44.871521%, 72.375488%)" stop-opacity="1"/>
<stop offset="0.421875" stop-color="rgb(34.672546%, 45.207214%, 72.613525%)" stop-opacity="1"/>
<stop offset="0.4375" stop-color="rgb(34.428406%, 45.544434%, 72.850037%)" stop-opacity="1"/>
<stop offset="0.453125" stop-color="rgb(34.184265%, 45.880127%, 73.088074%)" stop-opacity="1"/>
<stop offset="0.46875" stop-color="rgb(33.94165%, 46.21582%, 73.326111%)" stop-opacity="1"/>
<stop offset="0.484375" stop-color="rgb(33.69751%, 46.55304%, 73.564148%)" stop-opacity="1"/>
<stop offset="0.5" stop-color="rgb(33.454895%, 46.888733%, 73.800659%)" stop-opacity="1"/>
<stop offset="0.515625" stop-color="rgb(33.210754%, 47.224426%, 74.038696%)" stop-opacity="1"/>
<stop offset="0.53125" stop-color="rgb(32.96814%, 47.561646%, 74.276733%)" stop-opacity="1"/>
<stop offset="0.546875" stop-color="rgb(32.723999%, 47.897339%, 74.514771%)" stop-opacity="1"/>
<stop offset="0.5625" stop-color="rgb(32.481384%, 48.233032%, 74.751282%)" stop-opacity="1"/>
<stop offset="0.578125" stop-color="rgb(32.237244%, 48.570251%, 74.989319%)" stop-opacity="1"/>
<stop offset="0.59375" stop-color="rgb(31.994629%, 48.905945%, 75.227356%)" stop-opacity="1"/>
<stop offset="0.609375" stop-color="rgb(31.750488%, 49.241638%, 75.465393%)" stop-opacity="1"/>
<stop offset="0.625" stop-color="rgb(31.506348%, 49.578857%, 75.701904%)" stop-opacity="1"/>
<stop offset="0.640625" stop-color="rgb(31.263733%, 49.914551%, 75.939941%)" stop-opacity="1"/>
<stop offset="0.65625" stop-color="rgb(31.019592%, 50.250244%, 76.177979%)" stop-opacity="1"/>
<stop offset="0.671875" stop-color="rgb(30.776978%, 50.587463%, 76.416016%)" stop-opacity="1"/>
<stop offset="0.6875" stop-color="rgb(30.532837%, 50.923157%, 76.652527%)" stop-opacity="1"/>
<stop offset="0.703125" stop-color="rgb(30.290222%, 51.25885%, 76.890564%)" stop-opacity="1"/>
<stop offset="0.71875" stop-color="rgb(30.046082%, 51.596069%, 77.128601%)" stop-opacity="1"/>
<stop offset="0.734375" stop-color="rgb(29.803467%, 51.931763%, 77.366638%)" stop-opacity="1"/>
<stop offset="0.75" stop-color="rgb(29.559326%, 52.267456%, 77.603149%)" stop-opacity="1"/>
<stop offset="0.765625" stop-color="rgb(29.315186%, 52.604675%, 77.841187%)" stop-opacity="1"/>
<stop offset="0.78125" stop-color="rgb(29.072571%, 52.940369%, 78.079224%)" stop-opacity="1"/>
<stop offset="0.796875" stop-color="rgb(28.82843%, 53.276062%, 78.317261%)" stop-opacity="1"/>
<stop offset="0.8125" stop-color="rgb(28.585815%, 53.613281%, 78.553772%)" stop-opacity="1"/>
<stop offset="0.828125" stop-color="rgb(28.341675%, 53.948975%, 78.791809%)" stop-opacity="1"/>
<stop offset="0.84375" stop-color="rgb(28.09906%, 54.284668%, 79.029846%)" stop-opacity="1"/>
<stop offset="0.859375" stop-color="rgb(27.854919%, 54.621887%, 79.267883%)" stop-opacity="1"/>
<stop offset="0.875" stop-color="rgb(27.612305%, 54.957581%, 79.504395%)" stop-opacity="1"/>
<stop offset="0.890625" stop-color="rgb(27.368164%, 55.293274%, 79.742432%)" stop-opacity="1"/>
<stop offset="0.90625" stop-color="rgb(27.125549%, 55.630493%, 79.980469%)" stop-opacity="1"/>
<stop offset="0.921875" stop-color="rgb(26.881409%, 55.966187%, 80.218506%)" stop-opacity="1"/>
<stop offset="0.9375" stop-color="rgb(26.637268%, 56.30188%, 80.455017%)" stop-opacity="1"/>
<stop offset="0.953125" stop-color="rgb(26.394653%, 56.639099%, 80.693054%)" stop-opacity="1"/>
<stop offset="0.96875" stop-color="rgb(26.150513%, 56.974792%, 80.931091%)" stop-opacity="1"/>
<stop offset="0.984375" stop-color="rgb(25.907898%, 57.310486%, 81.169128%)" stop-opacity="1"/>
<stop offset="1" stop-color="rgb(25.663757%, 57.647705%, 81.40564%)" stop-opacity="1"/>
</linearGradient>
<clipPath id="clip-4">
<path clip-rule="nonzero" d="M 0 0 L 3303.800781 0 L 3303.800781 2483.46875 L 0 2483.46875 Z M 0 0 "/>
</clipPath>
</defs>
<g clip-path="url(#clip-0)">
<g clip-path="url(#clip-1)">
<path fill-rule="nonzero" fill="url(#linear-pattern-0)" d="M 1863.21875 674.730469 L 1863.21875 2242.851562 L 2617.800781 2242.851562 L 2617.800781 674.730469 Z M 1863.21875 674.730469 "/>
</g>
</g>
<g clip-path="url(#clip-2)">
<g clip-path="url(#clip-3)">
<path fill-rule="nonzero" fill="url(#linear-pattern-1)" d="M 815.050781 878.039062 L 815.050781 2446.148438 L 1569.578125 2446.148438 L 1569.578125 878.039062 Z M 815.050781 878.039062 "/>
</g>
</g>
<g clip-path="url(#clip-4)">
<path fill-rule="evenodd" fill="rgb(21.166992%, 4.315186%, 29.417419%)" fill-opacity="1" d="M 1911.46875 1127.761719 C 1881 1179.628906 1959.671875 1224.230469 1989.398438 1173.570312 C 2037.28125 1092.058594 2155.738281 1091.988281 2203.730469 1173.578125 C 2233.851562 1224.800781 2311.808594 1179.019531 2281.578125 1127.730469 C 2198.46875 986.660156 1994 987.28125 1911.46875 1127.761719 Z M 1798.660156 610.191406 L 1798.660156 1490.140625 C 1940.128906 1504.558594 2068.828125 1586.039062 2141.820312 1710.011719 C 2172.148438 1761.539062 2094.019531 1806.929688 2063.988281 1755.871094 C 2007.179688 1659.371094 1908.160156 1595.101562 1798.660156 1581.101562 L 1798.660156 2178.320312 C 2250.820312 2009.121094 2553.261719 1574.140625 2553.261719 1089.941406 C 2553.261719 959.378906 2541.03125 730.25 2520.640625 610.191406 Z M 1207.148438 1399.128906 C 1328.488281 1399.128906 1449.320312 1274.5 1376.210938 1231.421875 C 1311.03125 1192.988281 1316.511719 1308.808594 1207.179688 1308.808594 C 1097.800781 1308.808594 1103.378906 1192.988281 1038.148438 1231.421875 C 965.023438 1274.480469 1085.808594 1399.128906 1207.148438 1399.128906 Z M 783.070312 813.488281 C 762.71875 933.578125 750.503906 1162.71875 750.503906 1293.230469 C 750.503906 1777.378906 1052.941406 2212.359375 1505.011719 2381.589844 L 1505.011719 1979.070312 C 1363.558594 1964.648438 1234.859375 1883.179688 1161.878906 1759.230469 C 1131.71875 1707.988281 1209.519531 1662.101562 1239.730469 1713.371094 C 1296.53125 1809.820312 1395.53125 1874.121094 1505.011719 1888.109375 L 1505.011719 813.488281 Z M 1550.199219 2483.46875 C 1531 2483.46875 1511.550781 2480 1492.429688 2473.179688 C 994.625 2296.039062 660.136719 1821.820312 660.136719 1293.230469 C 660.136719 1162.300781 672.152344 927.660156 694.125 797.910156 C 644.652344 784.269531 551.464844 772.78125 494.625 854.46875 C 401.449219 988.410156 159.308594 1000.179688 40.039062 987.949219 C -19.203125 981.878906 -9.8125 891.910156 49.179688 898.039062 C 128.460938 905.949219 349.785156 904.460938 420.480469 802.839844 C 490.765625 701.78125 598.992188 688.878906 682.554688 702.71875 C 663.066406 655.351562 623.761719 600.300781 545.6875 593.730469 C 344.113281 576.699219 208.425781 279.398438 202.753906 266.761719 C 178.390625 212.488281 260.785156 175.578125 285.1875 229.710938 C 317.953125 302.378906 429.933594 493.269531 553.277344 503.671875 C 698.5625 515.929688 763.335938 636.101562 784.042969 723.109375 L 1550.199219 723.109375 C 1575.160156 723.109375 1595.390625 743.351562 1595.390625 768.308594 L 1595.390625 2438.320312 C 1595.390625 2463.269531 1575.160156 2483.46875 1550.199219 2483.46875 Z M 2519.699219 519.820312 C 2540.390625 432.820312 2605.171875 312.640625 2750.441406 300.378906 C 2873.78125 289.960938 2985.800781 99.089844 3018.558594 26.410156 C 3042.898438 -27.570312 3125.21875 9.46875 3100.980469 63.460938 C 3095.300781 76.089844 2959.621094 373.410156 2758.058594 390.398438 C 2679.230469 397.058594 2639.988281 452.140625 2620.738281 499.46875 C 2704.371094 485.511719 2812.851562 498.28125 2883.261719 599.519531 C 2954.148438 701.46875 3175.390625 702.851562 3254.550781 694.738281 C 3313.910156 688.75 3322.789062 778.519531 3263.738281 784.640625 C 3144.710938 796.988281 2902.25 785.019531 2809.121094 651.148438 C 2751.800781 568.789062 2658.878906 580.53125 2609.601562 594.378906 C 2631.589844 724.058594 2643.640625 958.910156 2643.640625 1089.941406 C 2643.640625 1618.550781 2309.128906 2092.769531 1811.289062 2269.910156 C 1775.230469 2282.730469 1708.328125 2291.730469 1708.328125 2235 L 1708.328125 565 C 1708.328125 540.050781 1728.558594 519.820312 1753.511719 519.820312 L 2519.699219 519.820312 "/>
</g>
</svg>
